<svg id="Economy_management" height="512" viewBox="0 0 64 64" width="512" xmlns="http://www.w3.org/2000/svg" data-name="Economy management"><path d="m30 3h14v47h-14z" fill="#3e8bda"/><path d="m2 3h14v47h-14z" fill="#ec455a"/><path d="m6 8h6v24h-6z" fill="#fff"/><circle cx="9" cy="41" fill="#9e2849" r="3"/><path d="m16 3h14v47h-14z" fill="#f7d880"/><path d="m20 8h6v24h-6z" fill="#fff"/><path d="m34 8h6v24h-6z" fill="#fff"/><circle cx="23" cy="41" fill="#ff9811" r="3"/><circle cx="37" cy="41" fill="#5bcbfa" r="3"/><path d="m57 50h3a0 0 0 0 1 0 0v10a0 0 0 0 1 0 0h-3a5 5 0 0 1 -5-5 5 5 0 0 1 5-5z" fill="#636263" transform="matrix(-1 0 0 -1 112 110)"/><path d="m11 60h41v-10h-41l-9 5z" fill="#6bc19a"/><path d="m48 50h4v10h-4z" fill="#83d8f4" transform="matrix(-1 0 0 -1 100 110)"/><path d="m11 60 3-3-3-2 3-2-3-3z" fill="#6bc19a"/><path d="m11 50 3 3-3 2 3 2-3 3-9-5z" fill="#a78966"/><path d="m44 3h16v47h-16z" fill="#64c1f7"/></svg>