<?xml version="1.0" encoding="iso-8859-1"?>
<!-- Generator: Adobe Illustrator 19.0.0, SVG Export Plug-In . SVG Version: 6.00 Build 0)  -->
<svg version="1.1" id="Layer_1" xmlns="http://www.w3.org/2000/svg" xmlns:xlink="http://www.w3.org/1999/xlink" x="0px" y="0px"
	 viewBox="0 0 512.002 512.002" style="enable-background:new 0 0 512.002 512.002;" xml:space="preserve">
<path style="fill:#3D324C;" d="M153.174,96.096c-23.755,21.319-43.265,46.937-57.507,75.511
	c-21.086-0.905-40.774-10.785-54.103-27.141C21.32,120.46,5.913,38.858,0.628,8.223c-0.663-3.816,1.89-7.453,5.706-8.115
	C7.543-0.107,8.789,0,9.944,0.43c29.201,10.48,106.952,39.861,127.106,63.956C144.781,73.577,150.299,84.424,153.174,96.096z"/>
<path style="fill:#B49ACA;" d="M88.635,128.262c-11.054-0.448-21.355-5.688-28.234-14.341c-3.977-4.739-10.928-21.256-18.632-50.771
	c-1.254-4.81,1.63-9.737,6.44-10.991c2.006-0.528,4.138-0.34,6.028,0.528c27.732,12.72,42.781,22.421,46.749,27.159
	c6.234,7.202,9.665,16.401,9.665,25.923c0.045,6.7-2.759,13.105-7.703,17.619C98.919,126.677,93.831,128.414,88.635,128.262z"/>
<path style="fill:#3D324C;" d="M358.828,96.096c23.755,21.319,43.265,46.937,57.507,75.511
	c21.086-0.905,40.774-10.785,54.103-27.141c20.244-24.006,35.651-105.609,40.936-136.243c0.663-3.816-1.89-7.453-5.706-8.115
	c-1.209-0.215-2.454-0.107-3.61,0.322c-29.201,10.48-106.952,39.861-127.106,63.956C367.222,73.577,361.704,84.424,358.828,96.096z"
	/>
<path style="fill:#B49ACA;" d="M423.367,128.262c11.054-0.448,21.355-5.688,28.234-14.341c3.977-4.739,10.928-21.256,18.632-50.771
	c1.254-4.81-1.63-9.737-6.449-10.991c-2.006-0.52-4.129-0.34-6.019,0.528c-27.732,12.72-42.781,22.421-46.749,27.159
	c-6.234,7.202-9.665,16.401-9.665,25.923c-0.045,6.7,2.759,13.105,7.703,17.619C413.084,126.677,418.163,128.414,423.367,128.262z"
	/>
<g>
	<path style="fill:#F09372;" d="M85.715,415.161c-0.949,14.798-13.714,26.03-28.521,25.081
		c-14.807-0.949-26.03-13.714-25.081-28.521c0.905-14.144,12.648-25.144,26.819-25.135c4.998,0.018,9.898,1.415,14.153,4.031
		C76.614,399.127,80.842,407.341,85.715,415.161z"/>
	<path style="fill:#F09372;" d="M121.635,458.157v0.09c0,14.843-12.03,26.872-26.872,26.872s-26.872-12.03-26.872-26.872
		c0-14.843,12.03-26.872,26.872-26.872c0.726-0.027,1.442,0.027,2.15,0.179C104.302,441.173,112.579,450.086,121.635,458.157z"/>
	<path style="fill:#F09372;" d="M174.305,492.553c-4.094,14.26-18.972,22.492-33.232,18.399
		c-11.519-3.305-19.447-13.848-19.438-25.833c-0.027-7.462,3.099-14.583,8.599-19.617
		C143.733,476.331,158.539,485.423,174.305,492.553z"/>
	<path style="fill:#F09372;" d="M479.933,413.459c0.018,14.834-11.994,26.872-26.819,26.89
		c-14.198,0.018-25.95-11.018-26.837-25.188c4.882-7.82,9.101-16.025,12.63-24.543c4.255-2.616,9.155-4.013,14.153-4.031
		c14.825-0.018,26.855,11.976,26.872,26.801C479.933,413.405,479.933,413.432,479.933,413.459z"/>
	<path style="fill:#F09372;" d="M444.104,458.246c0,14.843-12.03,26.872-26.872,26.872c-14.843,0-26.872-12.03-26.872-26.872v-0.09
		c9.056-8.071,17.342-16.974,24.723-26.604c0.708-0.152,1.424-0.206,2.15-0.179c14.825-0.018,26.854,11.976,26.872,26.801
		C444.104,458.192,444.104,458.219,444.104,458.246z"/>
	<path style="fill:#F09372;" d="M390.359,485.119c0.009,14.834-12.003,26.863-26.837,26.872
		c-11.985,0.009-22.519-7.927-25.833-19.438c15.774-7.13,30.581-16.213,44.071-27.052
		C387.26,470.536,390.386,477.657,390.359,485.119z"/>
</g>
<path style="fill:#894B9D;" d="M437.206,201.973c-4.73-12.961-10.265-25.618-16.571-37.89
	c-14.242-28.574-33.752-54.193-57.507-75.511c-29.327-26.747-67.441-41.822-107.131-42.369
	c-39.691,0.546-77.805,15.622-107.131,42.369c-23.755,21.319-43.265,46.937-57.507,75.511c-4.658,8.957-8.868,18.273-12.809,28.037
	c-1.254,3.225-2.508,6.539-3.762,9.853c-14.816,38.096-23.2,78.387-24.812,119.224c-0.018,23.854,4.801,47.475,14.153,69.42
	c3.529,8.519,7.748,16.724,12.63,24.543c3.431,5.661,7.166,11.134,11.197,16.392c7.381,9.629,15.667,18.533,24.723,26.604v0.09
	c2.777,2.419,5.643,4.927,8.599,7.256c13.49,10.839,28.297,19.921,44.071,27.052c57.65,25.914,123.649,25.914,181.299,0
	c15.774-7.13,30.581-16.213,44.071-27.052c2.956-2.329,5.822-4.837,8.599-7.256v-0.09c9.056-8.071,17.342-16.974,24.723-26.604
	c4.031-5.258,7.766-10.731,11.197-16.392c4.882-7.82,9.101-16.025,12.63-24.543c9.352-21.946,14.171-45.567,14.153-69.42
	C460.406,280.351,452.022,240.06,437.206,201.973z M318.699,314.927H286.99c-9.862-17.118-31.727-23.003-48.845-13.141
	c-5.464,3.144-9.997,7.677-13.141,13.141h-31.709c-44.528,0-80.617-36.09-80.617-80.617s36.09-80.617,80.617-80.617
	c7.775-0.018,15.496,1.129,22.931,3.404c2.311-10.247,0.511-20.987-5.016-29.918c-16.123-32.336,76.766-20.96,95.307,27.499
	c4.031-0.6,8.107-0.932,12.182-0.985c32.39,0.036,61.627,19.438,74.257,49.266c4.219,9.916,6.378,20.575,6.36,31.351
	C399.254,278.801,363.2,314.855,318.699,314.927z"/>
<path style="fill:#F29C1F;" d="M291.827,332.86c0,19.787-16.043,35.83-35.83,35.83s-35.83-16.043-35.83-35.83H291.827z"/>
<path style="fill:#FF5364;" d="M392.956,202.958c-12.63-29.828-41.867-49.23-74.257-49.266c-4.076,0.054-8.151,0.385-12.182,0.985
	c-18.542-48.46-111.431-59.836-95.307-27.499c5.527,8.931,7.327,19.671,5.016,29.918c-7.435-2.275-15.156-3.422-22.931-3.404
	c-30.966,0.072-59.164,17.807-72.645,45.683c-19.303,40.112-2.436,88.276,37.675,107.579c10.91,5.249,22.859,7.972,34.97,7.972
	h31.709c9.862-17.118,31.727-23.003,48.845-13.141c5.464,3.144,9.997,7.677,13.141,13.141h31.709
	c44.492-0.063,80.555-36.125,80.617-80.617C399.343,223.534,397.175,212.865,392.956,202.958z"/>
<path style="fill:#F0C419;" d="M291.827,332.86h-71.66c0-19.787,16.043-35.83,35.83-35.83S291.827,313.064,291.827,332.86z"/>
<g>
	<circle style="fill:#FFFFFF;" cx="193.294" cy="234.327" r="44.787"/>
	<circle style="fill:#FFFFFF;" cx="318.699" cy="234.327" r="44.787"/>
</g>
<g>
	<path style="fill:#2C2F38;" d="M202.252,252.224c-1.164,0.018-2.32-0.197-3.404-0.627c-1.066-0.52-2.06-1.182-2.956-1.971
		c-0.358-0.448-0.717-0.896-1.075-1.344c-0.34-0.502-0.609-1.039-0.806-1.612c-0.26-0.511-0.439-1.048-0.537-1.612
		c-0.107-0.591-0.161-1.191-0.179-1.792c0.018-0.573,0.072-1.138,0.179-1.702c0.081-0.591,0.269-1.164,0.537-1.702
		c0.179-0.546,0.448-1.066,0.806-1.523c0.358-0.537,0.717-0.985,1.075-1.433c0.869-0.788,1.872-1.424,2.956-1.881
		c2.186-0.896,4.622-0.896,6.808,0c1.093,0.43,2.096,1.075,2.956,1.881c0.358,0.448,0.717,0.896,1.075,1.433
		c0.358,0.457,0.627,0.976,0.806,1.523c0.269,0.537,0.448,1.111,0.537,1.702c0.107,0.564,0.161,1.129,0.179,1.702
		c-0.018,0.6-0.072,1.2-0.179,1.792c-0.099,0.564-0.278,1.102-0.537,1.612c-0.197,0.573-0.466,1.111-0.806,1.612
		c-0.358,0.448-0.717,0.896-1.075,1.344c-0.878,0.806-1.872,1.469-2.956,1.971C204.581,252.027,203.416,252.242,202.252,252.224z"/>
	<path style="fill:#2C2F38;" d="M327.656,252.224c-2.383,0.009-4.667-0.923-6.36-2.598c-0.824-0.842-1.469-1.845-1.881-2.956
		c-1.424-3.305-0.681-7.148,1.881-9.674c2.58-2.526,6.405-3.296,9.764-1.971c3.35,1.37,5.545,4.622,5.554,8.241
		c-0.036,2.374-0.967,4.64-2.598,6.36C332.323,251.293,330.039,252.224,327.656,252.224z"/>
</g>
<g>
	<path style="fill:#3D324C;" d="M193.294,404.501H175.38c-9.889-0.009-17.906-8.026-17.915-17.915v-8.957h-8.957
		c-9.889-0.009-17.906-8.026-17.915-17.915v-17.915c0-4.944,4.013-8.957,8.957-8.957c4.945,0,8.957,4.013,8.957,8.957v17.915h8.957
		c9.889,0.009,17.906,8.026,17.915,17.915v8.957h17.915c4.945,0,8.957,4.013,8.957,8.957
		C202.252,400.488,198.248,404.501,193.294,404.501z"/>
	<path style="fill:#3D324C;" d="M157.465,431.374H139.55c-9.889-0.009-17.906-8.026-17.915-17.915v-8.957h-8.957
		c-9.889-0.009-17.906-8.026-17.915-17.915v-17.915c0-4.944,4.013-8.957,8.957-8.957s8.957,4.013,8.957,8.957v17.915h8.957
		c9.889,0.009,17.906,8.026,17.915,17.915v8.957h17.915c4.945,0,8.957,4.013,8.957,8.957
		C166.422,427.361,162.418,431.374,157.465,431.374z"/>
	<path style="fill:#3D324C;" d="M336.614,404.501h-17.915c-4.945,0-8.957-4.013-8.957-8.957c0-4.944,4.013-8.957,8.957-8.957h17.915
		v-8.957c0.009-9.889,8.026-17.906,17.915-17.915h8.957v-17.915c0-4.944,4.013-8.957,8.957-8.957s8.957,4.013,8.957,8.957v17.915
		c-0.009,9.889-8.026,17.906-17.915,17.915h-8.957v8.957C354.52,396.475,346.503,404.483,336.614,404.501z"/>
	<path style="fill:#3D324C;" d="M372.444,431.374h-17.915c-4.944,0-8.957-4.013-8.957-8.957c0-4.944,4.013-8.957,8.957-8.957h17.915
		v-8.957c0.009-9.889,8.026-17.906,17.915-17.915h8.957v-17.915c0-4.944,4.013-8.957,8.957-8.957c4.945,0,8.957,4.013,8.957,8.957
		v17.915c-0.009,9.889-8.026,17.906-17.915,17.915h-8.957v8.957C390.35,423.348,382.333,431.356,372.444,431.374z"/>
</g>
<path style="fill:#DF4D60;" d="M255.997,183.789c-3.467-4.326-7.372-8.295-11.645-11.824h23.289
	C263.369,175.495,259.463,179.454,255.997,183.789z"/>
<g>
</g>
<g>
</g>
<g>
</g>
<g>
</g>
<g>
</g>
<g>
</g>
<g>
</g>
<g>
</g>
<g>
</g>
<g>
</g>
<g>
</g>
<g>
</g>
<g>
</g>
<g>
</g>
<g>
</g>
</svg>
