<svg id="Capa_1" enable-background="new 0 0 512.002 512.002" height="512" viewBox="0 0 512.002 512.002" width="512" xmlns="http://www.w3.org/2000/svg"><g><path d="m201.596 79.586 14.701 4.385c1.431.427 2.874.63 4.293.63 6.461 0 12.427-4.208 14.368-10.716 2.368-7.939-2.148-16.294-10.086-18.662l-25.463-7.595 13.191-25.796c3.771-7.376.85-16.413-6.526-20.185-7.376-3.77-16.412-.849-20.185 6.526l-21.398 41.847c-1.86 3.638-2.156 7.877-.819 11.739l8.813 25.441-19.097.966c-8.273.418-14.642 7.465-14.223 15.739.405 8.016 7.031 14.243 14.968 14.243.255 0 28.578-1.426 28.578-1.426l23.759 68.59c2.148 6.203 7.958 10.094 14.173 10.094 1.628 0 3.285-.267 4.91-.83 7.828-2.711 11.976-11.255 9.264-19.083z" fill="#b35f49"/><path d="m358.614 88.166-19.097-.966 8.813-25.441c1.337-3.861 1.042-8.101-.818-11.739l-21.4-41.847c-3.772-7.376-12.811-10.296-20.185-6.526-7.376 3.772-10.298 12.809-6.526 20.185l13.191 25.797-25.463 7.595c-7.938 2.368-12.455 10.723-10.087 18.661 1.941 6.509 7.906 10.717 14.368 10.717 1.419 0 2.863-.203 4.293-.63l14.701-4.385-33.22 95.906c-2.712 7.828 1.437 16.372 9.265 19.083 1.626.563 3.281.83 4.91.83 6.214 0 12.024-3.892 14.173-10.094l23.759-68.59s28.323 1.426 28.578 1.426c7.937 0 14.563-6.227 14.968-14.243.419-8.274-5.949-15.321-14.223-15.739z" fill="#893f2a"/><path d="m168.721 172.981c-23.976-12.933-61.53.058-65.732 1.582-7.168 2.598-11.247 10.16-9.48 17.577 1.036 4.349 10.811 42.864 34.786 55.795 9.57 5.162 17.992 6.819 24.865 6.819 4.285 0 7.969-.645 10.951-1.487 10.539-2.977 19.453-10.383 25.101-20.856s6.941-21.991 3.639-32.432c-2.433-7.691-8.593-18.618-24.13-26.998z" fill="#fed1a3"/><path d="m409.014 174.563c-4.204-1.523-41.757-14.514-65.732-1.582-28.118 15.164-30.552 40.775-20.491 59.43 5.648 10.473 14.563 17.88 25.102 20.856 2.981.842 6.664 1.487 10.95 1.487 6.873 0 15.296-1.658 24.864-6.819 23.976-12.931 33.751-51.446 34.787-55.795 1.766-7.417-2.312-14.979-9.48-17.577z" fill="#ffbc86"/><path d="m256.001 165.402c-59.154 0-107.279 48.125-107.279 107.278v40.278c0 8.284 6.716 15 15 15h184.558c8.284 0 15-6.716 15-15v-40.278c0-59.153-48.125-107.278-107.279-107.278z" fill="#f0915a"/><path d="m256.001 165.402v162.557h92.279c8.284 0 15-6.716 15-15v-40.279c0-59.153-48.125-107.278-107.279-107.278z" fill="#c8733c"/><path d="m358.131 310.274c-27.438-21.396-63.709-33.179-102.13-33.179s-74.691 11.783-102.13 33.179c-28.541 22.255-44.259 52.185-44.259 84.275s15.718 62.019 44.259 84.274c27.439 21.396 63.709 33.179 102.13 33.179s74.691-11.783 102.13-33.179c28.541-22.255 44.26-52.185 44.26-84.274s-15.719-62.02-44.26-84.275z" fill="#fed1a3"/><path d="m358.131 310.274c-27.438-21.396-63.709-33.179-102.13-33.179v234.908c38.421 0 74.691-11.783 102.13-33.179 28.541-22.255 44.26-52.185 44.26-84.274s-15.719-62.021-44.26-84.276z" fill="#ffbc86"/><ellipse cx="256.001" cy="378.15" fill="#ff637b" rx="50.416" ry="50.417" transform="matrix(.924 -.383 .383 .924 -125.225 126.752)"/><path d="m306.417 378.15c0-27.8-22.616-50.416-50.416-50.417v100.833c27.8 0 50.416-22.616 50.416-50.416z" fill="#e63950"/><circle cx="227.001" cy="249.502" fill="#5c5454" r="13.5"/><circle cx="285.001" cy="249.502" fill="#463f3f" r="13.5"/></g></svg>